<?xml version="1.0" encoding="UTF-8" standalone="no"?>
<!DOCTYPE svg PUBLIC "-//W3C//DTD SVG 1.1//EN"
 "http://www.w3.org/Graphics/SVG/1.1/DTD/svg11.dtd">
<!-- Generated by graphviz version 5.0.0 (20220707.1540)
 -->
<!-- Title: StorageDiagram Pages: 1 -->
<svg width="1516pt" height="252pt"
 viewBox="0.00 0.00 1516.22 251.60" xmlns="http://www.w3.org/2000/svg" xmlns:xlink="http://www.w3.org/1999/xlink">
<g id="graph0" class="graph" transform="scale(1 1) rotate(0) translate(4 247.6)">
<title>StorageDiagram</title>
<polygon fill="white" stroke="transparent" points="-4,4 -4,-247.6 1512.22,-247.6 1512.22,4 -4,4"/>
<!-- 3 -->
<g id="node1" class="node">
<title>3</title>
<polygon fill="#f2f2f2" stroke="black" points="0,-90.5 0,-239.3 426.86,-239.3 426.86,-90.5 0,-90.5"/>
<text text-anchor="middle" x="213.43" y="-222.7" font-family="Courier New" font-size="14.00">GasContract &lt;&lt;Contract&gt;&gt;</text>
<polyline fill="none" stroke="black" points="0,-214.5 426.86,-214.5 "/>
<text text-anchor="middle" x="24.8" y="-197.9" font-family="Courier New" font-size="14.00">slot</text>
<polyline fill="none" stroke="black" points="0,-189.7 49.61,-189.7 "/>
<text text-anchor="middle" x="24.8" y="-173.1" font-family="Courier New" font-size="14.00">0&#45;4</text>
<polyline fill="none" stroke="black" points="0,-164.9 49.61,-164.9 "/>
<text text-anchor="middle" x="24.8" y="-148.3" font-family="Courier New" font-size="14.00">5</text>
<polyline fill="none" stroke="black" points="0,-140.1 49.61,-140.1 "/>
<text text-anchor="middle" x="24.8" y="-123.5" font-family="Courier New" font-size="14.00">6</text>
<polyline fill="none" stroke="black" points="0,-115.3 49.61,-115.3 "/>
<text text-anchor="middle" x="24.8" y="-98.7" font-family="Courier New" font-size="14.00">7</text>
<polyline fill="none" stroke="black" points="49.61,-90.5 49.61,-214.5 "/>
<text text-anchor="middle" x="238.23" y="-197.9" font-family="Courier New" font-size="14.00">type: &lt;inherited contract&gt;.variable (bytes)</text>
<polyline fill="none" stroke="black" points="49.61,-189.7 426.86,-189.7 "/>
<text text-anchor="middle" x="238.03" y="-173.1" font-family="Courier New" font-size="14.00">address[5]: administrators (160)</text>
<polyline fill="none" stroke="black" points="49.61,-164.9 426.86,-164.9 "/>
<text text-anchor="middle" x="237.83" y="-148.3" font-family="Courier New" font-size="14.00">mapping(address=&gt;uint256): whitelist (32)</text>
<polyline fill="none" stroke="black" points="49.61,-140.1 426.86,-140.1 "/>
<text text-anchor="middle" x="238.13" y="-123.5" font-family="Courier New" font-size="14.00">mapping(address=&gt;uint256): balances (32)</text>
<polyline fill="none" stroke="black" points="49.61,-115.3 426.86,-115.3 "/>
<text text-anchor="middle" x="238.03" y="-98.7" font-family="Courier New" font-size="14.00">mapping(address=&gt;Payment[]): payments (32)</text>
</g>
<!-- 1 -->
<g id="node2" class="node">
<title>1</title>
<polygon fill="#f2f2f2" stroke="black" points="826.32,-168.7 826.32,-243.1 1144.77,-243.1 1144.77,-168.7 826.32,-168.7"/>
<text text-anchor="middle" x="985.54" y="-226.5" font-family="Courier New" font-size="14.00">address[5]: administrators &lt;&lt;Array&gt;&gt;</text>
<polyline fill="none" stroke="black" points="826.32,-218.3 1144.77,-218.3 "/>
<text text-anchor="middle" x="859.62" y="-201.7" font-family="Courier New" font-size="14.00">slot</text>
<polyline fill="none" stroke="black" points="826.32,-193.5 892.92,-193.5 "/>
<text text-anchor="middle" x="859.62" y="-176.9" font-family="Courier New" font-size="14.00">0</text>
<polyline fill="none" stroke="black" points="892.92,-168.7 892.92,-218.3 "/>
<text text-anchor="middle" x="1018.74" y="-201.7" font-family="Courier New" font-size="14.00">type: variable (bytes)</text>
<polyline fill="none" stroke="black" points="892.92,-193.5 1144.56,-193.5 "/>
<text text-anchor="middle" x="955.83" y="-176.9" font-family="Courier New" font-size="14.00">address (20)</text>
<polyline fill="none" stroke="black" points="1018.74,-168.7 1018.74,-193.5 "/>
<text text-anchor="middle" x="1081.65" y="-176.9" font-family="Courier New" font-size="14.00">address (20)</text>
</g>
<!-- 3&#45;&gt;1 -->
<g id="edge1" class="edge">
<title>3:6&#45;&gt;1</title>
<path fill="none" stroke="black" d="M426.86,-176.9C557.66,-176.9 705.48,-184.95 816.06,-192.57"/>
<polygon fill="black" stroke="black" points="816.09,-196.08 826.3,-193.29 816.57,-189.1 816.09,-196.08"/>
</g>
<!-- 2 -->
<g id="node3" class="node">
<title>2</title>
<polygon fill="#f2f2f2" stroke="black" points="462.86,-0.5 462.86,-149.3 1508.22,-149.3 1508.22,-0.5 462.86,-0.5"/>
<text text-anchor="middle" x="985.54" y="-132.7" font-family="Courier New" font-size="14.00">Payment &lt;&lt;Struct&gt;&gt;</text>
<polyline fill="none" stroke="black" points="462.86,-124.5 1508.22,-124.5 "/>
<text text-anchor="middle" x="487.67" y="-107.9" font-family="Courier New" font-size="14.00">slot</text>
<polyline fill="none" stroke="black" points="462.86,-99.7 512.47,-99.7 "/>
<text text-anchor="middle" x="487.67" y="-83.1" font-family="Courier New" font-size="14.00">0</text>
<polyline fill="none" stroke="black" points="462.86,-74.9 512.47,-74.9 "/>
<text text-anchor="middle" x="487.67" y="-58.3" font-family="Courier New" font-size="14.00">1</text>
<polyline fill="none" stroke="black" points="462.86,-50.1 512.47,-50.1 "/>
<text text-anchor="middle" x="487.67" y="-33.5" font-family="Courier New" font-size="14.00">2</text>
<polyline fill="none" stroke="black" points="462.86,-25.3 512.47,-25.3 "/>
<text text-anchor="middle" x="487.67" y="-8.7" font-family="Courier New" font-size="14.00">3</text>
<polyline fill="none" stroke="black" points="512.47,-0.5 512.47,-124.5 "/>
<text text-anchor="middle" x="1010.34" y="-107.9" font-family="Courier New" font-size="14.00">type: variable (bytes)</text>
<polyline fill="none" stroke="black" points="512.47,-99.7 1508.22,-99.7 "/>
<text text-anchor="middle" x="583.48" y="-83.1" font-family="Courier New" font-size="14.00">unallocated (2)</text>
<polyline fill="none" stroke="black" points="654.49,-74.9 654.49,-99.7 "/>
<text text-anchor="middle" x="767.51" y="-83.1" font-family="Courier New" font-size="14.00">bytes8: recipientName (8)</text>
<polyline fill="none" stroke="black" points="880.52,-74.9 880.52,-99.7 "/>
<text text-anchor="middle" x="968.34" y="-83.1" font-family="Courier New" font-size="14.00">address: admin (20)</text>
<polyline fill="none" stroke="black" points="1056.15,-74.9 1056.15,-99.7 "/>
<text text-anchor="middle" x="1156.57" y="-83.1" font-family="Courier New" font-size="14.00">bool: adminUpdated (1)</text>
<polyline fill="none" stroke="black" points="1256.98,-74.9 1256.98,-99.7 "/>
<text text-anchor="middle" x="1382.6" y="-83.1" font-family="Courier New" font-size="14.00">PaymentType: paymentType (1)</text>
<polyline fill="none" stroke="black" points="512.47,-74.9 1508.22,-74.9 "/>
<text text-anchor="middle" x="746.68" y="-58.3" font-family="Courier New" font-size="14.00">unallocated (12)</text>
<polyline fill="none" stroke="black" points="980.89,-50.1 980.89,-74.9 "/>
<text text-anchor="middle" x="1244.51" y="-58.3" font-family="Courier New" font-size="14.00">address: recipient (20)</text>
<polyline fill="none" stroke="black" points="512.47,-50.1 1508.22,-50.1 "/>
<text text-anchor="middle" x="1010.09" y="-33.5" font-family="Courier New" font-size="14.00">uint256: paymentId (32)</text>
<polyline fill="none" stroke="black" points="512.47,-25.3 1508.22,-25.3 "/>
<text text-anchor="middle" x="1009.98" y="-8.7" font-family="Courier New" font-size="14.00">uint256: amount (32)</text>
</g>
<!-- 3&#45;&gt;2 -->
<g id="edge2" class="edge">
<title>3:16&#45;&gt;2</title>
<path fill="none" stroke="black" d="M426.86,-102.9C435.31,-102.9 443.83,-102.87 452.41,-102.8"/>
<polygon fill="black" stroke="black" points="452.53,-106.3 462.5,-102.72 452.47,-99.3 452.53,-106.3"/>
</g>
</g>
</svg>
