<?xml version="1.0" encoding="UTF-8" standalone="no"?>
<!DOCTYPE svg PUBLIC "-//W3C//DTD SVG 1.1//EN"
 "http://www.w3.org/Graphics/SVG/1.1/DTD/svg11.dtd">
<!-- Generated by graphviz version 5.0.0 (20220707.1540)
 -->
<!-- Title: StorageDiagram Pages: 1 -->
<svg width="1299pt" height="252pt"
 viewBox="0.00 0.00 1298.59 251.60" xmlns="http://www.w3.org/2000/svg" xmlns:xlink="http://www.w3.org/1999/xlink">
<g id="graph0" class="graph" transform="scale(1 1) rotate(0) translate(4 247.6)">
<title>StorageDiagram</title>
<polygon fill="white" stroke="transparent" points="-4,4 -4,-247.6 1294.59,-247.6 1294.59,4 -4,4"/>
<!-- 3 -->
<g id="node1" class="node">
<title>3</title>
<polygon fill="#f2f2f2" stroke="black" points="0,-90.5 0,-239.3 426.86,-239.3 426.86,-90.5 0,-90.5"/>
<text text-anchor="middle" x="213.43" y="-222.7" font-family="Courier New" font-size="14.00">GasContract &lt;&lt;Contract&gt;&gt;</text>
<polyline fill="none" stroke="black" points="0,-214.5 426.86,-214.5 "/>
<text text-anchor="middle" x="24.8" y="-197.9" font-family="Courier New" font-size="14.00">slot</text>
<polyline fill="none" stroke="black" points="0,-189.7 49.61,-189.7 "/>
<text text-anchor="middle" x="24.8" y="-173.1" font-family="Courier New" font-size="14.00">0&#45;4</text>
<polyline fill="none" stroke="black" points="0,-164.9 49.61,-164.9 "/>
<text text-anchor="middle" x="24.8" y="-148.3" font-family="Courier New" font-size="14.00">5</text>
<polyline fill="none" stroke="black" points="0,-140.1 49.61,-140.1 "/>
<text text-anchor="middle" x="24.8" y="-123.5" font-family="Courier New" font-size="14.00">6</text>
<polyline fill="none" stroke="black" points="0,-115.3 49.61,-115.3 "/>
<text text-anchor="middle" x="24.8" y="-98.7" font-family="Courier New" font-size="14.00">7</text>
<polyline fill="none" stroke="black" points="49.61,-90.5 49.61,-214.5 "/>
<text text-anchor="middle" x="238.23" y="-197.9" font-family="Courier New" font-size="14.00">type: &lt;inherited contract&gt;.variable (bytes)</text>
<polyline fill="none" stroke="black" points="49.61,-189.7 426.86,-189.7 "/>
<text text-anchor="middle" x="238.03" y="-173.1" font-family="Courier New" font-size="14.00">address[5]: administrators (160)</text>
<polyline fill="none" stroke="black" points="49.61,-164.9 426.86,-164.9 "/>
<text text-anchor="middle" x="237.92" y="-148.3" font-family="Courier New" font-size="14.00">bytes32: merkleRoot (32)</text>
<polyline fill="none" stroke="black" points="49.61,-140.1 426.86,-140.1 "/>
<text text-anchor="middle" x="238.13" y="-123.5" font-family="Courier New" font-size="14.00">mapping(address=&gt;uint256): balances (32)</text>
<polyline fill="none" stroke="black" points="49.61,-115.3 426.86,-115.3 "/>
<text text-anchor="middle" x="238.03" y="-98.7" font-family="Courier New" font-size="14.00">mapping(address=&gt;Payment[]): payments (32)</text>
</g>
<!-- 1 -->
<g id="node2" class="node">
<title>1</title>
<polygon fill="#f2f2f2" stroke="black" points="717.5,-168.7 717.5,-243.1 1035.95,-243.1 1035.95,-168.7 717.5,-168.7"/>
<text text-anchor="middle" x="876.73" y="-226.5" font-family="Courier New" font-size="14.00">address[5]: administrators &lt;&lt;Array&gt;&gt;</text>
<polyline fill="none" stroke="black" points="717.5,-218.3 1035.95,-218.3 "/>
<text text-anchor="middle" x="750.8" y="-201.7" font-family="Courier New" font-size="14.00">slot</text>
<polyline fill="none" stroke="black" points="717.5,-193.5 784.11,-193.5 "/>
<text text-anchor="middle" x="750.8" y="-176.9" font-family="Courier New" font-size="14.00">0</text>
<polyline fill="none" stroke="black" points="784.11,-168.7 784.11,-218.3 "/>
<text text-anchor="middle" x="909.92" y="-201.7" font-family="Courier New" font-size="14.00">type: variable (bytes)</text>
<polyline fill="none" stroke="black" points="784.11,-193.5 1035.74,-193.5 "/>
<text text-anchor="middle" x="847.01" y="-176.9" font-family="Courier New" font-size="14.00">address (20)</text>
<polyline fill="none" stroke="black" points="909.92,-168.7 909.92,-193.5 "/>
<text text-anchor="middle" x="972.83" y="-176.9" font-family="Courier New" font-size="14.00">address (20)</text>
</g>
<!-- 3&#45;&gt;1 -->
<g id="edge1" class="edge">
<title>3:6&#45;&gt;1</title>
<path fill="none" stroke="black" d="M426.86,-176.9C519.73,-176.9 623.17,-183.16 707.33,-189.86"/>
<polygon fill="black" stroke="black" points="707.24,-193.36 717.49,-190.68 707.8,-186.39 707.24,-193.36"/>
</g>
<!-- 2 -->
<g id="node3" class="node">
<title>2</title>
<polygon fill="#f2f2f2" stroke="black" points="462.86,-0.5 462.86,-149.3 1290.59,-149.3 1290.59,-0.5 462.86,-0.5"/>
<text text-anchor="middle" x="876.73" y="-132.7" font-family="Courier New" font-size="14.00">Payment &lt;&lt;Struct&gt;&gt;</text>
<polyline fill="none" stroke="black" points="462.86,-124.5 1290.59,-124.5 "/>
<text text-anchor="middle" x="487.67" y="-107.9" font-family="Courier New" font-size="14.00">slot</text>
<polyline fill="none" stroke="black" points="462.86,-99.7 512.47,-99.7 "/>
<text text-anchor="middle" x="487.67" y="-83.1" font-family="Courier New" font-size="14.00">0</text>
<polyline fill="none" stroke="black" points="462.86,-74.9 512.47,-74.9 "/>
<text text-anchor="middle" x="487.67" y="-58.3" font-family="Courier New" font-size="14.00">1</text>
<polyline fill="none" stroke="black" points="462.86,-50.1 512.47,-50.1 "/>
<text text-anchor="middle" x="487.67" y="-33.5" font-family="Courier New" font-size="14.00">2</text>
<polyline fill="none" stroke="black" points="462.86,-25.3 512.47,-25.3 "/>
<text text-anchor="middle" x="487.67" y="-8.7" font-family="Courier New" font-size="14.00">3</text>
<polyline fill="none" stroke="black" points="512.47,-0.5 512.47,-124.5 "/>
<text text-anchor="middle" x="901.53" y="-107.9" font-family="Courier New" font-size="14.00">type: variable (bytes)</text>
<polyline fill="none" stroke="black" points="512.47,-99.7 1290.59,-99.7 "/>
<text text-anchor="middle" x="587.68" y="-83.1" font-family="Courier New" font-size="14.00">unallocated (10)</text>
<polyline fill="none" stroke="black" points="662.89,-74.9 662.89,-99.7 "/>
<text text-anchor="middle" x="750.7" y="-83.1" font-family="Courier New" font-size="14.00">address: admin (20)</text>
<polyline fill="none" stroke="black" points="838.52,-74.9 838.52,-99.7 "/>
<text text-anchor="middle" x="938.93" y="-83.1" font-family="Courier New" font-size="14.00">bool: adminUpdated (1)</text>
<polyline fill="none" stroke="black" points="1039.35,-74.9 1039.35,-99.7 "/>
<text text-anchor="middle" x="1164.97" y="-83.1" font-family="Courier New" font-size="14.00">PaymentType: paymentType (1)</text>
<polyline fill="none" stroke="black" points="512.47,-74.9 1290.59,-74.9 "/>
<text text-anchor="middle" x="616.48" y="-58.3" font-family="Courier New" font-size="14.00">unallocated (4)</text>
<polyline fill="none" stroke="black" points="720.49,-50.1 720.49,-74.9 "/>
<text text-anchor="middle" x="867.01" y="-58.3" font-family="Courier New" font-size="14.00">bytes8: recipientName (8)</text>
<polyline fill="none" stroke="black" points="1013.52,-50.1 1013.52,-74.9 "/>
<text text-anchor="middle" x="1151.64" y="-58.3" font-family="Courier New" font-size="14.00">address: recipient (20)</text>
<polyline fill="none" stroke="black" points="512.47,-50.1 1290.59,-50.1 "/>
<text text-anchor="middle" x="901.09" y="-33.5" font-family="Courier New" font-size="14.00">uint256: paymentId (32)</text>
<polyline fill="none" stroke="black" points="512.47,-25.3 1290.59,-25.3 "/>
<text text-anchor="middle" x="901.48" y="-8.7" font-family="Courier New" font-size="14.00">uint256: amount (32)</text>
</g>
<!-- 3&#45;&gt;2 -->
<g id="edge2" class="edge">
<title>3:16&#45;&gt;2</title>
<path fill="none" stroke="black" d="M426.86,-102.9C435.35,-102.9 443.93,-102.85 452.57,-102.75"/>
<polygon fill="black" stroke="black" points="452.79,-106.25 462.75,-102.62 452.7,-99.25 452.79,-106.25"/>
</g>
</g>
</svg>
