<?xml version="1.0" encoding="UTF-8" standalone="no"?>
<!DOCTYPE svg PUBLIC "-//W3C//DTD SVG 1.1//EN"
 "http://www.w3.org/Graphics/SVG/1.1/DTD/svg11.dtd">
<!-- Generated by graphviz version 5.0.0 (20220707.1540)
 -->
<!-- Title: StorageDiagram Pages: 1 -->
<svg width="1332pt" height="276pt"
 viewBox="0.00 0.00 1332.19 276.00" xmlns="http://www.w3.org/2000/svg" xmlns:xlink="http://www.w3.org/1999/xlink">
<g id="graph0" class="graph" transform="scale(1 1) rotate(0) translate(4 272)">
<title>StorageDiagram</title>
<polygon fill="white" stroke="transparent" points="-4,4 -4,-272 1328.19,-272 1328.19,4 -4,4"/>
<!-- 3 -->
<g id="node1" class="node">
<title>3</title>
<polygon fill="#f2f2f2" stroke="black" points="0,-108.9 0,-257.7 426.86,-257.7 426.86,-108.9 0,-108.9"/>
<text text-anchor="middle" x="213.43" y="-241.1" font-family="Courier New" font-size="14.00">GasContract &lt;&lt;Contract&gt;&gt;</text>
<polyline fill="none" stroke="black" points="0,-232.9 426.86,-232.9 "/>
<text text-anchor="middle" x="24.8" y="-216.3" font-family="Courier New" font-size="14.00">slot</text>
<polyline fill="none" stroke="black" points="0,-208.1 49.61,-208.1 "/>
<text text-anchor="middle" x="24.8" y="-191.5" font-family="Courier New" font-size="14.00">0&#45;4</text>
<polyline fill="none" stroke="black" points="0,-183.3 49.61,-183.3 "/>
<text text-anchor="middle" x="24.8" y="-166.7" font-family="Courier New" font-size="14.00">5</text>
<polyline fill="none" stroke="black" points="0,-158.5 49.61,-158.5 "/>
<text text-anchor="middle" x="24.8" y="-141.9" font-family="Courier New" font-size="14.00">6</text>
<polyline fill="none" stroke="black" points="0,-133.7 49.61,-133.7 "/>
<text text-anchor="middle" x="24.8" y="-117.1" font-family="Courier New" font-size="14.00">7</text>
<polyline fill="none" stroke="black" points="49.61,-108.9 49.61,-232.9 "/>
<text text-anchor="middle" x="238.23" y="-216.3" font-family="Courier New" font-size="14.00">type: &lt;inherited contract&gt;.variable (bytes)</text>
<polyline fill="none" stroke="black" points="49.61,-208.1 426.86,-208.1 "/>
<text text-anchor="middle" x="238.03" y="-191.5" font-family="Courier New" font-size="14.00">address[5]: administrators (160)</text>
<polyline fill="none" stroke="black" points="49.61,-183.3 426.86,-183.3 "/>
<text text-anchor="middle" x="238.13" y="-166.7" font-family="Courier New" font-size="14.00">mapping(address=&gt;uint256): balances (32)</text>
<polyline fill="none" stroke="black" points="49.61,-158.5 426.86,-158.5 "/>
<text text-anchor="middle" x="237.83" y="-141.9" font-family="Courier New" font-size="14.00">mapping(address=&gt;uint256): whitelist (32)</text>
<polyline fill="none" stroke="black" points="49.61,-133.7 426.86,-133.7 "/>
<text text-anchor="middle" x="238.03" y="-117.1" font-family="Courier New" font-size="14.00">mapping(address=&gt;Payment[]): payments (32)</text>
</g>
<!-- 1 -->
<g id="node2" class="node">
<title>1</title>
<polygon fill="#f2f2f2" stroke="black" points="734.3,-193.1 734.3,-267.5 1052.75,-267.5 1052.75,-193.1 734.3,-193.1"/>
<text text-anchor="middle" x="893.53" y="-250.9" font-family="Courier New" font-size="14.00">address[5]: administrators &lt;&lt;Array&gt;&gt;</text>
<polyline fill="none" stroke="black" points="734.3,-242.7 1052.75,-242.7 "/>
<text text-anchor="middle" x="767.61" y="-226.1" font-family="Courier New" font-size="14.00">slot</text>
<polyline fill="none" stroke="black" points="734.3,-217.9 800.91,-217.9 "/>
<text text-anchor="middle" x="767.61" y="-201.3" font-family="Courier New" font-size="14.00">0</text>
<polyline fill="none" stroke="black" points="800.91,-193.1 800.91,-242.7 "/>
<text text-anchor="middle" x="926.73" y="-226.1" font-family="Courier New" font-size="14.00">type: variable (bytes)</text>
<polyline fill="none" stroke="black" points="800.91,-217.9 1052.54,-217.9 "/>
<text text-anchor="middle" x="863.82" y="-201.3" font-family="Courier New" font-size="14.00">address (20)</text>
<polyline fill="none" stroke="black" points="926.73,-193.1 926.73,-217.9 "/>
<text text-anchor="middle" x="989.63" y="-201.3" font-family="Courier New" font-size="14.00">address (20)</text>
</g>
<!-- 3&#45;&gt;1 -->
<g id="edge1" class="edge">
<title>3:6&#45;&gt;1</title>
<path fill="none" stroke="black" d="M426.86,-195.3C525.52,-195.3 635.6,-203.21 723.95,-211.51"/>
<polygon fill="black" stroke="black" points="723.78,-215.01 734.07,-212.47 724.44,-208.04 723.78,-215.01"/>
</g>
<!-- 2 -->
<g id="node3" class="node">
<title>2</title>
<polygon fill="#f2f2f2" stroke="black" points="462.86,-0.5 462.86,-174.1 1324.19,-174.1 1324.19,-0.5 462.86,-0.5"/>
<text text-anchor="middle" x="893.53" y="-157.5" font-family="Courier New" font-size="14.00">Payment &lt;&lt;Struct&gt;&gt;</text>
<polyline fill="none" stroke="black" points="462.86,-149.3 1324.19,-149.3 "/>
<text text-anchor="middle" x="487.67" y="-132.7" font-family="Courier New" font-size="14.00">slot</text>
<polyline fill="none" stroke="black" points="462.86,-124.5 512.47,-124.5 "/>
<text text-anchor="middle" x="487.67" y="-107.9" font-family="Courier New" font-size="14.00">0</text>
<polyline fill="none" stroke="black" points="462.86,-99.7 512.47,-99.7 "/>
<text text-anchor="middle" x="487.67" y="-83.1" font-family="Courier New" font-size="14.00">1</text>
<polyline fill="none" stroke="black" points="462.86,-74.9 512.47,-74.9 "/>
<text text-anchor="middle" x="487.67" y="-58.3" font-family="Courier New" font-size="14.00">2</text>
<polyline fill="none" stroke="black" points="462.86,-50.1 512.47,-50.1 "/>
<text text-anchor="middle" x="487.67" y="-33.5" font-family="Courier New" font-size="14.00">3</text>
<polyline fill="none" stroke="black" points="462.86,-25.3 512.47,-25.3 "/>
<text text-anchor="middle" x="487.67" y="-8.7" font-family="Courier New" font-size="14.00">4</text>
<polyline fill="none" stroke="black" points="512.47,-0.5 512.47,-149.3 "/>
<text text-anchor="middle" x="918.33" y="-132.7" font-family="Courier New" font-size="14.00">type: variable (bytes)</text>
<polyline fill="none" stroke="black" points="512.47,-124.5 1324.19,-124.5 "/>
<text text-anchor="middle" x="587.68" y="-107.9" font-family="Courier New" font-size="14.00">unallocated (10)</text>
<polyline fill="none" stroke="black" points="662.89,-99.7 662.89,-124.5 "/>
<text text-anchor="middle" x="767.51" y="-107.9" font-family="Courier New" font-size="14.00">address: recipient (20)</text>
<polyline fill="none" stroke="black" points="872.12,-99.7 872.12,-124.5 "/>
<text text-anchor="middle" x="972.54" y="-107.9" font-family="Courier New" font-size="14.00">bool: adminUpdated (1)</text>
<polyline fill="none" stroke="black" points="1072.95,-99.7 1072.95,-124.5 "/>
<text text-anchor="middle" x="1198.57" y="-107.9" font-family="Courier New" font-size="14.00">PaymentType: paymentType (1)</text>
<polyline fill="none" stroke="black" points="512.47,-99.7 1324.19,-99.7 "/>
<text text-anchor="middle" x="708.68" y="-83.1" font-family="Courier New" font-size="14.00">unallocated (12)</text>
<polyline fill="none" stroke="black" points="904.89,-74.9 904.89,-99.7 "/>
<text text-anchor="middle" x="1114.2" y="-83.1" font-family="Courier New" font-size="14.00">address: admin (20)</text>
<polyline fill="none" stroke="black" points="512.47,-74.9 1324.19,-74.9 "/>
<text text-anchor="middle" x="918.09" y="-58.3" font-family="Courier New" font-size="14.00">uint256: paymentId (32)</text>
<polyline fill="none" stroke="black" points="512.47,-50.1 1324.19,-50.1 "/>
<text text-anchor="middle" x="917.98" y="-33.5" font-family="Courier New" font-size="14.00">uint256: amount (32)</text>
<polyline fill="none" stroke="black" points="512.47,-25.3 1324.19,-25.3 "/>
<text text-anchor="middle" x="918.19" y="-8.7" font-family="Courier New" font-size="14.00">string: recipientName (32)</text>
</g>
<!-- 3&#45;&gt;2 -->
<g id="edge2" class="edge">
<title>3:16&#45;&gt;2</title>
<path fill="none" stroke="black" d="M426.86,-121.3C435.31,-121.3 443.84,-121.24 452.44,-121.14"/>
<polygon fill="black" stroke="black" points="452.61,-124.63 462.56,-120.99 452.51,-117.63 452.61,-124.63"/>
</g>
</g>
</svg>
